<?xml version="1.0" encoding="utf-8" ?>
<svg xmlns="http://www.w3.org/2000/svg" xmlns:xlink="http://www.w3.org/1999/xlink" width="1024" height="1024">
	<path fill="#010101" d="M77.3553 1024L-0 1024L0 -0L1024 0L1024 1024L932.754 1024L925.241 1024L894.64 1024L889.439 1024L556.233 1024L549.582 1024L507.566 1024L486.11 1024L480.07 1024L457.574 1024L450.522 1024L342.663 1024L334.578 1024L305.622 1024L297.16 1024L182.398 1024L175.438 1024L155.504 1024L149.498 1024L128.212 1024L83.6837 1024L77.3553 1024Z"/>
	<path fill="#2E180E" d="M512.612 391.843C513.652 393.289 513.888 399.711 514.226 401.741L516.773 413.992C512.115 406.813 511.39 400.015 511.401 391.695L512.612 391.843Z"/>
	<path fill="#B67551" d="M405.758 176.626L419.468 172.06L426.097 182.085C419.565 180.365 411.847 179.421 405.758 176.626Z"/>
	<path fill="#D08F66" d="M545.036 379.153C552.288 384.598 556.613 391.81 559.275 400.397L555.063 403.639C554.274 399.763 552.376 395.023 550.483 391.549C548.432 387.786 545.521 383.49 545.036 379.153Z"/>
	<path fill="#B67551" d="M153.112 307.327C154.891 308.491 156.993 309.611 158.421 311.191L160.308 343.525C158.516 338.295 156.617 333.494 153.452 328.923C153.907 326.611 153.611 323.92 153.59 321.56C153.546 316.806 153.551 312.066 153.112 307.327Z"/>
	<path fill="#FAFBFB" d="M498.663 612.624C499.76 612.738 499.819 612.633 500.763 613.331L502.485 613.373L502.573 613.409C504.697 615.31 506.648 617.63 508.617 619.701C512.466 623.749 516.788 628.141 518.693 633.526C519.968 637.131 517.401 641.553 515.86 644.817C514.143 638.659 512.422 632.485 509.303 626.864C506.426 621.679 502.439 617.169 498.663 612.624Z"/>
	<path fill="#FAFBFB" d="M524.161 689.884C528.369 693.472 532.113 697.24 533.827 702.637C535.524 707.983 534.354 712.415 531.794 717.219L528.803 721.132L524.161 689.884Z"/>
	<path fill="#2E180E" d="M508.325 439.011L521.872 428.355L522.154 428.872C523.062 430.494 527.459 435.828 527.366 437.041C523.201 440.74 518.513 444.392 514.842 448.574C512.949 445.118 511.024 441.919 508.325 439.011Z"/>
	<path fill="#2E180E" d="M515.525 251.818L515.905 252.523C516.906 254.554 516.664 257.567 517.052 259.81C519.054 271.387 526.264 277.039 536.683 281.203C544.442 284.305 552.186 284.099 560.182 285.727L558.148 286.181C552.616 287.665 546.065 288.227 540.481 286.782L539.5 286.521C532.388 284.698 524.925 281.078 520.249 275.239L519.817 274.685C517.195 271.377 516.056 268.367 515.319 264.25C514.649 260.508 514.413 255.476 515.525 251.818Z"/>
	<path fill="#B67551" d="M465.622 355.115L462.193 351.358L463.646 346.481C465.954 339.969 471.109 331.714 477.684 328.798C479.323 328.07 480.749 328.09 482.387 328.799C486.866 330.739 488.725 335.244 490.441 339.467L488.5 339.556C486.854 338.03 486.006 336.65 484.866 334.75C484.438 334.036 484.555 334.264 483.75 333.632C480.538 333.858 477.416 337.3 475.355 339.703C471.309 344.421 469.383 350.345 465.622 355.115Z"/>
	<path fill="#B67551" d="M195.503 187.214C195.351 185.898 194.745 183.662 195.5 182.631C205.844 185.729 215.736 188.738 226.391 190.768L250.425 194.559C249.839 194.977 249.308 195.251 248.622 195.492C246.26 196.325 242.65 196.081 240.158 196.093C224.892 196.164 209.474 193.548 195.503 187.214Z"/>
	<path fill="#60321C" d="M866.813 347.853L867.25 346.14C871.93 345.476 877.057 346.183 881.807 346.089C885.831 346.011 889.79 345.402 893.798 345.25L894.484 346L893.602 347.5L894.492 348.743L894.15 349.656C890.484 349.305 887.706 349.604 884.25 350.987C874.872 354.74 871.076 362.559 867.215 371.254L866.813 347.853Z"/>
	<path fill="#60321C" d="M522.957 324.83C517.749 310.282 517.346 297.137 517.577 281.84C520.181 284.544 523.307 286.419 525.951 289.007C523.796 291.585 524.377 299.102 524.681 302.485L525.364 307L525.518 307.844C526.569 313.367 529.265 317.873 532.416 322.43L522.957 324.83Z"/>
	<path fill="#B67551" d="M132.697 332.394C135.247 329.858 137.762 327.53 141.594 327.446C144.062 327.392 146.047 329.086 147.676 330.76C152.913 336.14 156.188 345.233 155.964 352.668C155.776 358.875 152.693 365.881 149.353 371.055C148.85 365.974 150 361.002 149.204 355.803C148.593 351.816 147.853 347.798 146.444 344C145.215 340.684 142.659 335.214 138.902 334.136C137.099 333.62 135.165 333.652 133.464 332.802L132.697 332.394Z"/>
	<path fill="#1C2122" d="M305.622 1024L318.969 999.223C323.83 1007.96 328.742 1015.87 334.578 1024L305.622 1024Z"/>
	<path fill="#B67551" d="M744.795 585.101L745.25 586.945C751.414 589.861 758.962 591.325 765.514 593.396C779.514 597.821 793.468 602.453 806.865 608.501L804.583 615.223C791.243 609.088 777.3 604.485 763.5 599.507C757.257 597.255 749.863 595.406 744.196 591.992L744.795 585.101Z"/>
	<path fill="#D08F66" d="M553.654 412.805L554.055 411.929C555.926 408.046 559.076 405.237 562.948 403.51L563.553 403.222L569.614 442.686C567.838 443.488 566.027 444.455 564.124 444.893C563.674 444.437 563.287 444.15 562.708 443.871C553.732 439.545 552.964 430.206 553.984 421.371C554.279 418.816 555.142 415.021 553.654 412.805Z"/>
	<path fill="#A9DBE2" d="M626.939 745.831C627.661 746.395 628.309 746.988 628.833 747.75C630.308 749.896 631.283 753.385 632.305 755.804L640.282 776.84C642.287 782.263 644.527 787.651 646.063 793.234C647.745 799.345 648.707 805.967 649.488 812.25L650.9 827.772L637.995 824.778C639.519 806.372 639.557 787.834 634.75 769.861C632.565 761.688 629.547 753.862 626.939 745.831Z"/>
	<path fill="#D08F66" d="M718.595 549.062C718.7 548.545 718.787 547.981 719.013 547.5C720.292 544.78 728.91 543.324 731.833 542.55C754.712 536.485 776.685 528.897 796.355 515.352C804.176 509.966 812.088 503.737 819.195 497.462C822.12 494.88 824.576 491.508 827.618 489.122C828.322 488.569 829.003 488.372 829.837 488.095C826.118 493.933 821.274 499.067 816.381 503.934C795.428 524.778 766.602 539.743 737.861 546.187L718.595 549.062Z"/>
	<path fill="#D08F66" d="M624.402 613.889C623.387 610.805 621.885 608.104 620.189 605.353L661.417 592.843L674.656 589.216C676.992 588.6 679.75 588.278 681.965 587.353C682.847 586.986 683.376 586.537 684.102 585.932C684.521 588.516 684.436 591.041 684.379 593.646L624.402 613.889Z"/>
	<path fill="#ECB38A" d="M895.123 375.931L894.663 375.726C890.585 373.943 887.303 373.196 882.994 374.857C875.34 377.808 871.706 385.251 868.463 392.223C869.747 380.22 872.213 367.666 882.25 359.734C885.238 357.373 888.712 355.937 892.559 356.57C896.599 357.234 899.012 359.98 901.22 363.22C904.764 368.42 906.752 374.546 908.217 380.605C903.722 379.29 899.34 377.997 895.123 375.931Z"/>
	<path fill="#A9DBE2" d="M692.179 855.025C679.851 854.867 666.735 852.543 654.778 849.709C648.784 848.288 642.707 846.885 636.962 844.63C636.536 840.767 636.436 836.553 637.05 832.709C637.206 831.731 637.982 831.522 638.75 830.957C641.563 831.097 644.499 832.201 647.272 832.79L662.398 835.795C664.027 837.919 666.161 839.179 668.23 840.809C672.475 844.155 676.71 847.629 681.465 850.243C684.852 852.105 688.623 853.501 692.179 855.025Z"/>
	<path fill="#2E180E" d="M866.813 347.853L865.69 333.377C871.53 334.589 878.034 336.072 884.003 335.145C894.12 333.574 900.968 329.725 909.5 324.318L910.606 325.503L903.386 337.206C907.529 346.07 911.114 355.602 910.976 365.482C909.873 364.372 908.883 362.359 908.032 361C905.297 356.634 901.776 352.734 896.905 350.761L894.15 349.656L894.492 348.743L893.602 347.5L894.484 346L893.798 345.25C889.79 345.402 885.831 346.011 881.807 346.089C877.057 346.183 871.93 345.476 867.25 346.14L866.813 347.853Z"/>
	<path fill="#60321C" d="M910.606 325.503C912.874 327.666 914.561 330.675 916.172 333.348C920.91 341.209 925.227 350.746 925.51 360.058C925.607 363.242 925.528 366.34 925.128 369.5C923.711 380.685 920.767 389.918 915.597 399.909C915.674 393.301 916.101 386.724 915.181 380.147C914.462 375.004 912.846 370.298 910.976 365.482C911.114 355.602 907.529 346.07 903.386 337.206L910.606 325.503Z"/>
	<defs>
		<linearGradient id="gradient_0" gradientUnits="userSpaceOnUse" x1="874.50677" y1="384.20566" x2="893.82727" y2="436.84229">
			<stop offset="0" stop-color="#D89872"/>
			<stop offset="1" stop-color="#F8BF94"/>
		</linearGradient>
	</defs>
	<path fill="url(#gradient_0)" d="M895.123 375.931C899.34 377.997 903.722 379.29 908.217 380.605L908.792 388.476C909.138 403.793 905.305 421.809 894.452 433.276C889.556 438.45 882.063 442.907 874.836 443.057C869.895 443.159 865.139 442.02 860.455 440.55L863.026 431.118C864.918 431.821 867.755 431.625 869.75 431.454C877.907 430.752 887.582 427.289 892.787 420.692L893.25 420.092C897.852 414.285 899.835 407.592 901.355 400.475C902.058 397.181 902.195 393.845 902.41 390.491L902.359 390.447C902.242 389.101 902.26 388.002 901.384 386.896L901.094 385.967C899.879 381.896 896.907 379.698 895.123 375.931Z"/>
	<path fill="#C9C4C3" d="M563.801 975.143C565.545 967.412 569.722 959.352 572.91 952.126C581.213 933.311 590.142 914.766 600.621 897.048L612.724 878.456C619.284 868.575 625.956 858.731 633.698 849.727L641.265 852.478C636.419 857.395 632.591 862.83 628.482 868.352C617.854 882.631 608.965 897.444 599.677 912.567C593.115 923.25 585.939 933.982 579.988 945L569.487 966.394C568.058 969.26 566.7 973.674 563.801 975.143Z"/>
	<defs>
		<linearGradient id="gradient_1" gradientUnits="userSpaceOnUse" x1="568.8764" y1="332.49158" x2="506.27841" y2="355.40704">
			<stop offset="0" stop-color="#331E15"/>
			<stop offset="1" stop-color="#562F1D"/>
		</linearGradient>
	</defs>
	<path fill="url(#gradient_1)" d="M532.416 322.43L533.098 323.182C537.714 328.138 543.265 331.226 550.169 331.396C556.888 331.561 562.616 329.073 567.365 324.39L568.978 322.771L561.841 354.846L561.426 354.492C559.27 352.69 557.562 351.642 554.753 351.325C553.719 351.209 552.82 350.524 551.76 350.261C547.312 349.162 542.678 349.175 538.25 350.318L537.441 350.522C529.972 352.48 524.869 357.917 521.179 364.423C516.428 372.798 511.962 381.961 512.612 391.843L511.401 391.695C511.455 388.846 511.269 385.884 511.646 383.06C512.324 377.996 514.028 372.885 515.467 368C518.23 358.619 520.458 349.643 526.517 341.75C530.374 341.372 532.77 337.382 537.212 337.274L537.75 337.274L537.75 336.841C536.218 336.769 533.831 336.896 532.425 336.299C527.418 334.172 525.224 329.416 522.957 324.83L532.416 322.43Z"/>
	<path fill="#D08F66" d="M571.927 409.328C572.381 409.719 572.955 410.003 573.29 410.5C573.661 411.049 573.913 413.028 574.085 413.703L577.053 425.715C579.68 435.476 583.406 444.855 587.312 454.168C589.657 459.76 591.902 465.433 594.761 470.789C602.22 484.76 613.067 498.002 625.257 508.115C639.804 520.184 656.009 530.206 673.815 536.725C685.391 540.963 697.984 543.796 709.952 546.764C712.02 547.276 711.851 546.859 712.555 548.989C706.845 549.138 701.076 548.165 695.451 547.292C667.075 542.889 639.952 530.246 618.75 510.784C597.322 491.115 584.177 466.673 576.872 438.721C574.384 429.198 572.338 419.182 571.927 409.328Z"/>
	<path fill="#D08F66" d="M684.172 582.38L684.3 552.181C697.863 555.165 712.056 556.88 725.931 555.283C732.467 554.531 738.897 552.85 745.287 551.318L745.221 567.175C734.106 574.41 720.622 578.499 707.381 575.755C699.341 574.089 692.387 570.29 684.643 567.918C684.629 570.346 685.313 581.069 684.172 582.38Z"/>
	<path fill="#D08F66" d="M863.026 431.118L867.848 400.268C868.815 404.2 869.618 407.788 871.499 411.431C872.75 413.853 876.837 421.662 879.25 422.43C879.494 416.386 875.026 411.539 873.626 405.788C872.07 399.397 872.548 393.627 876.103 388.002C878.593 384.063 882.694 379.9 887.5 379.15C892.662 378.344 897.554 383.842 901.384 386.896C902.26 388.002 902.242 389.101 902.359 390.447L902.41 390.491C902.195 393.845 902.058 397.181 901.355 400.475C899.835 407.592 897.852 414.285 893.25 420.092L892.787 420.692C887.582 427.289 877.907 430.752 869.75 431.454C867.755 431.625 864.918 431.821 863.026 431.118Z"/>
	<path fill="#FAFBFB" d="M319.789 562.738C323.892 562.565 331.975 562.14 335.038 564.951C337.221 566.955 338.138 570.124 338.281 573C338.743 582.314 336.931 591.367 330.649 598.387L313.038 599.062C309.175 599.077 303.163 599.893 299.997 597.214C295.136 593.1 294.486 581.536 294.15 575.5C293.872 570.519 295.892 566.848 299.071 563.208C305.739 562.285 313.043 562.749 319.789 562.738Z"/>
	<path fill="#B67551" d="M365.766 512.379L365.765 523.535C363.983 525.119 361.499 526.239 359.408 527.41L347.5 533.961L316.937 551.524C313.949 550.849 310.387 548.262 307.752 546.672L283.944 531.432L271.515 523.552L271.549 516.417L278.925 519.003C308.076 528.825 338.341 525.997 365.766 512.379Z"/>
	<path fill="#60321C" d="M525.951 289.007C529.126 289.518 532.712 291.933 536.058 292.762C556.586 297.845 574.772 288.923 592.004 278.621L578.747 300.248C575.067 307.32 571.464 316.073 565.826 321.75C561.683 325.921 556.185 327.519 550.429 327.534C544.385 327.55 539.058 325.88 534.78 321.392C526.369 312.567 525.892 300.455 525.951 289.007Z"/>
	<path fill="#A9DBE2" d="M566.106 721.25C566.217 721.505 566.403 721.74 566.44 722.016C566.552 722.849 565.695 725.304 565.478 726.269L562.592 739.5L542.208 837.576C541.436 834.43 541.19 831.097 540.808 827.88L531.059 738.201C543.91 736.004 557.1 730.925 566.106 721.25Z"/>
	<path fill="#FAFBFB" d="M662.398 835.795C697.811 840.925 733.332 841.72 768.759 835.947C777.124 834.584 785.316 832.549 793.54 830.528L793.632 845.622C786.21 848.724 777.398 850.259 769.5 851.576C751.068 854.65 732.72 856.06 714.046 856.087C706.914 856.097 699.199 856.314 692.179 855.025C688.623 853.501 684.852 852.105 681.465 850.243C676.71 847.629 672.475 844.155 668.23 840.809C666.161 839.179 664.027 837.919 662.398 835.795Z"/>
	<path fill="#1C2122" d="M95.9061 848.26L95.7316 847.712C95.0868 844.969 95.7177 841.552 96.0158 838.75L97.3503 825.118L108.737 740.52C114.062 708.193 120.427 676.024 129.461 644.5L133.765 630.752C134.814 627.54 135.821 624.027 137.703 621.203C140.867 616.457 145.034 612.912 149.382 609.322C159.052 601.339 170.323 594.37 181.347 588.38C185.322 586.22 189.537 583.489 194.005 582.628L193.688 582.948C190.333 586.275 186.219 589.204 182.614 592.306C171.227 602.098 159.632 612.513 150.931 624.848C143.492 635.393 140.375 647.748 136.501 659.866C121.289 707.444 111.802 756.464 102.956 805.547L98.1274 835.405C97.4796 839.518 97.2744 844.368 95.9061 848.26Z"/>
	<path fill="#FAFBFB" d="M258.928 518.25L260.503 518.042L261.051 518.5C260.089 519.813 259.215 520.83 259.001 522.5C259.821 524.14 261.843 525.857 263.295 526.982C266.971 529.829 271.45 531.929 275.432 534.345L308.273 554.63C305.344 554.972 302.025 555.462 299.238 556.45C289.788 559.8 288.188 570.175 284.423 578.315L278.698 591.084L277.862 590.809C275.615 589.846 273.17 587.759 271.148 586.306C263.493 580.805 252.223 572.768 248.634 563.718L248.363 563C248.105 562.336 247.835 561.689 247.697 560.985C245.719 550.942 247.816 539.446 250.188 529.686C250.819 527.089 251.38 523.724 252.881 521.492C254.32 519.354 256.556 518.804 258.928 518.25Z"/>
	<path fill="#ECB38A" d="M564.124 444.893C556.89 446.47 549.681 443.929 543.534 440.172C531.47 432.796 525.367 420.118 522.297 406.755C519.23 393.408 519.972 378.404 527.441 366.578C530.543 361.667 535.128 357.795 540.948 356.659C545.443 355.781 551.155 356.332 554.95 358.997C556.236 359.9 558.663 362.189 559.312 363.656C559.983 365.171 559.841 367.712 559.913 369.388L560.525 384C560.749 387.042 561.378 390.106 561.889 393.113L558.941 387.491C555.591 381.29 551.067 374.376 543.855 372.423C541.684 371.835 539.581 371.494 537.589 372.752C534.057 374.981 531.734 379.095 530.862 383.139C530.414 385.214 530.413 387.427 531.606 389.25C531.987 389.312 532.403 389.605 532.75 389.435C533.183 389.222 534.369 386.29 534.589 385.82C536.09 382.615 537.343 379.425 540.5 377.519C542.343 377.506 543.468 378.256 545.036 379.153C545.521 383.49 548.432 387.786 550.483 391.549C552.376 395.023 554.274 399.763 555.063 403.639C551.046 408.42 548.195 414.858 548.593 421.225C548.733 423.465 549.922 425.519 550.871 427.508C551.171 422.591 551.229 417.224 553.654 412.805C555.142 415.021 554.279 418.816 553.984 421.371C552.964 430.206 553.732 439.545 562.708 443.871C563.287 444.15 563.674 444.437 564.124 444.893Z"/>
	<path fill="#FAFBFB" d="M377.004 518.75L377.299 518.735C378.846 518.952 379.333 519.003 380.228 520.313C381.523 522.209 382.299 524.975 383.013 527.17C386.057 536.523 387.139 546.306 387.052 556.092C387.022 559.474 387.122 563.106 386.295 566.404C383.738 576.602 366.073 587.156 357.479 592.422L349.688 576.708L341.964 564C337.369 557.699 330.692 555.801 323.393 554.748L358.75 535.305L369.816 528.714C371.03 527.948 373.039 526.929 373.942 525.808C374.754 524.8 375.063 523.626 375.406 522.404C375.209 521.505 375.364 521.841 374.855 521.052L374.48 520.5C375.223 519.356 375.777 519.287 377.004 518.75Z"/>
	<path fill="#D08F66" d="M603.221 717.007L611.519 717.862C612.411 719.187 612.165 720.446 611.878 722L554.25 950.805L552.315 930.957C552.112 928.818 551.292 925.232 551.633 923.22C553.355 921.163 553.418 918.444 553.92 915.896L556.493 903.512L561.633 880.75L567.149 852L585.266 769.231C588.838 755.355 593.065 740.816 598.397 727.522L603.221 717.007Z"/>
	<path fill="#D08F66" d="M149.353 371.055L147.372 376.529C148.687 380.055 150.804 382.277 153.423 384.857C152.603 383.148 150.253 379.076 150.255 377.307C150.258 375.2 153.989 370.605 155.197 368.781C158.17 364.293 159.515 359.857 161.243 354.836C162.257 358.484 162.111 363.36 162.456 367.183L164.722 387.874C161.785 391.359 157.152 394.598 152.578 395.467C146.363 396.648 139.383 393.809 134.386 390.222C124.433 383.076 118.448 370.17 116.533 358.335C114.391 345.097 115.934 327.976 124.184 316.855C128.666 310.813 136.187 305.91 143.75 305.07C147.049 304.704 150.521 305.155 153.112 307.327C153.551 312.066 153.546 316.806 153.59 321.56C153.611 323.92 153.907 326.611 153.452 328.923C150.073 325.209 147.154 321.934 141.767 321.626C137.81 321.4 134.099 323.295 131.261 325.915C126.181 330.603 123.984 338.264 124.005 345C124.009 346.377 124.004 347.085 125 348.057C126.604 346.644 127.319 341.532 128.391 339.292C129.55 336.873 131.057 334.512 132.697 332.394L133.464 332.802C135.165 333.652 137.099 333.62 138.902 334.136C142.659 335.214 145.215 340.684 146.444 344C147.853 347.798 148.593 351.816 149.204 355.803C150 361.002 148.85 365.974 149.353 371.055Z"/>
	<defs>
		<linearGradient id="gradient_2" gradientUnits="userSpaceOnUse" x1="493.23077" y1="388.76746" x2="455.30637" y2="314.46878">
			<stop offset="0" stop-color="#B16F49"/>
			<stop offset="1" stop-color="#D7956A"/>
		</linearGradient>
	</defs>
	<path fill="url(#gradient_2)" d="M490.441 339.467C491.83 338.721 492.081 338.585 492.892 337.25C492.494 332.973 490.478 328.73 487.09 325.996C484.429 323.848 481.626 323.074 478.25 323.524C473.039 324.218 468.471 329.149 465.681 333.254C464.89 334.417 461.443 341.432 461.144 341.515L464.485 315.75C464.642 314.395 464.664 309.881 465.269 308.932C465.433 308.676 465.683 308.482 465.929 308.304C469.989 305.364 477.475 305.182 482.041 306.672C488.988 308.939 494.34 315.862 497.355 322.25C504.654 337.713 503.548 359.624 497.694 375.416C494.759 383.333 489.469 392.768 481.31 396.25C475.757 398.619 469.442 398.544 463.9 396.217C461.344 395.144 458.463 393.719 456.517 391.73L459.317 365.358C459.691 362.284 459.707 358.949 460.75 356.02C462.013 356.595 462.788 357.945 463.199 359.283C463.671 360.816 463.498 362.665 463.491 364.256C463.481 366.863 463.033 370.375 463.675 372.88C464.537 376.247 467.615 379.15 469.883 381.64C468.598 378.481 467.352 375.228 467.12 371.794C466.704 365.638 468.425 361.111 465.622 355.115C469.383 350.345 471.309 344.421 475.355 339.703C477.416 337.3 480.538 333.858 483.75 333.632C484.555 334.264 484.438 334.036 484.866 334.75C486.006 336.65 486.854 338.03 488.5 339.556L490.441 339.467Z"/>
	<path fill="#B67551" d="M898.78 1004.1C898.946 1003.42 899.524 1001.89 899.528 1001.25C899.54 999.501 897.643 995.724 897 994L888.415 971.191C875.362 934.536 863.237 897.314 854.034 859.498C851.264 848.114 847.807 835.995 847.037 824.283C846.821 820.99 847.224 817.843 847.698 814.59C844.072 809.547 841.776 801.556 839.809 795.636L827.022 752.391C824.202 742.483 821.739 732.145 817.243 722.842C830.379 717.638 844.735 711.352 856.296 703.247L857.565 710.532C851.212 715.738 844.275 719.418 836.933 723.03C835.204 723.881 828.659 725.828 828.067 726.905L848.278 790.799L853.852 806.275C854.995 809.308 856.461 811.412 856.612 814.765C856.752 817.878 857.476 821.037 857.937 824.121L861.739 845.354C867.896 876.155 875.613 906.514 884.916 936.527C890.229 953.666 896.616 970.312 900.779 987.814C902.13 993.493 903.76 998.85 903.504 1004.75C901.97 1005.97 902.025 1005.95 900.065 1005.86L898.78 1004.1Z"/>
	<path fill="#60321C" d="M909.587 268.393C913.364 262.074 914.452 256.304 914.673 249.088C921.558 265.169 924.108 285.073 917.375 301.719C912.639 313.429 904.514 320.95 892.891 325.682C884.821 328.968 875.6 329.508 867.479 326.085C861.414 323.53 856.327 318.994 851.337 314.812C841.289 306.392 830.748 297.968 818.25 293.511C809.681 290.454 800.862 288.315 792.545 284.542C780.157 278.922 768.732 270.998 758.169 262.504L784.791 276.505C794.116 281.033 803.944 284.162 813.914 286.896C820.775 288.777 827.852 290.693 834.941 291.44C846.513 291.516 857.646 293.052 869.25 291.476C886.059 289.193 899.205 281.81 909.587 268.393Z"/>
	<path fill="#2E180E" d="M834.941 291.44C846.513 291.516 857.646 293.052 869.25 291.476C886.059 289.193 899.205 281.81 909.587 268.393C913.168 273.151 914.226 281.413 913.448 287.25C912.457 294.687 905.735 302.712 899.89 307.12C893.358 312.044 884.867 312.856 877.023 311.592C865.322 309.707 856.381 301.22 845.921 296.438C843.449 295.308 840.931 294.365 838.312 293.627C837.182 293.309 835.21 293.169 834.5 292.255L834.941 291.44Z"/>
	<path fill="#FAFBFB" d="M816.197 606.75L817.558 606.596C822.711 606.562 828.396 610.475 831.859 614.087C838.727 621.251 842.671 631.386 846.596 640.354C851.438 651.415 856.412 662.628 858.912 674.5C859.911 679.243 860.112 683.932 859.97 688.758C855.777 696.369 846.941 701.677 839.391 705.495L820.256 713.533C819.599 712.423 821.335 703.738 821.464 701.803C821.679 698.58 821.615 695.245 821.391 692.025C820.411 677.92 813.91 667.12 803.496 657.954C804.668 642.817 806.584 627.373 811.688 612.967C812.675 610.181 813.426 608.074 816.197 606.75Z"/>
	<path fill="#60321C" d="M508.325 439.011C511.024 441.919 512.949 445.118 514.842 448.574C512.025 452.126 508.308 454.905 505.856 458.79C496.624 473.419 498.035 487.177 507.529 501C514.837 511.642 523.41 520.871 524.28 534.408C525.323 550.623 511.825 563.626 510.461 579.545C509.575 589.896 510.802 600.047 517.347 608.531C519.996 611.964 523.213 614.94 525.979 618.288C529.104 622.071 531.826 626.315 532.75 631.216C534.448 640.226 530.762 646.365 528.25 654.642C526.457 660.549 525.874 668.217 527.814 674.17C530.72 683.087 539.221 689.076 546.932 693.63C549.02 694.863 551.296 696.478 553.514 697.371C555.072 697.999 555.624 698.186 556.768 699.452L557.25 700.002C558.022 700.876 558.659 701.654 558.981 702.803C560.183 707.092 558.37 713.844 555.98 717.432C550.595 725.516 540.03 728.241 531.052 729.844C535.692 725.092 539.155 720.955 540.963 714.457C544.374 702.203 539.064 693.08 530.066 684.992C528.122 683.244 524.696 680.751 523.578 678.421C521.851 674.822 518.867 656.112 520.181 653.152L520.491 652.5C523.462 645.768 527.663 638.121 524.818 630.605L524.578 630C520.477 618.902 508.779 610.221 501.266 601.266C486.707 583.912 494.416 575.586 506.107 559.894C510.032 554.627 513.495 549.227 513.941 542.488C515.031 526.032 497.535 517.288 488.375 506.329C481.923 498.61 480.613 489.188 481.581 479.482C483.373 461.519 495.299 450.004 508.325 439.011Z"/>
	<path fill="#FAFBFB" d="M608.699 607.087C610.781 606.884 612.326 606.586 614.25 607.562C617.97 611.772 619.529 617.87 620.66 623.25C623.147 635.085 623.558 646.851 623.992 658.878C621.787 660.809 619.568 662.968 617.763 665.282C606.939 679.155 607.666 695.123 609.771 711.619L590.377 707.153L589.924 706.986C583.667 704.655 571.822 700.189 569.167 693.583C567.457 689.327 568.668 683.314 569.565 678.955C572.634 664.046 578.022 648.932 584.389 635.117C590.142 622.638 595.113 612.095 608.699 607.087Z"/>
	<path fill="#ECB38A" d="M551.633 923.22L547.376 880.515C546.634 873.275 545.195 865.375 545.323 858.125C545.387 854.477 546.703 850.352 547.391 846.762L554.72 811.711L576.718 708.243C585.641 712.485 593.414 715.308 603.221 717.007L598.397 727.522C593.065 740.816 588.838 755.355 585.266 769.231L567.149 852L561.633 880.75L556.493 903.512L553.92 915.896C553.418 918.444 553.355 921.163 551.633 923.22Z"/>
	<path fill="#1C2122" d="M161.895 133.734C162.062 143.855 166.33 153.359 169.961 162.672C173.073 170.655 177.947 180.537 178.322 189.177C178.51 193.516 176.683 198.895 175.25 202.952C168.416 222.291 157.304 237.953 143.089 252.547C139.503 256.229 135.778 259.105 130.628 260.069C124.862 234.877 120.746 206.381 125.05 180.624C127.39 166.622 132.798 150.223 145.015 141.8L145.784 141.284C150.797 137.884 156.175 135.648 161.895 133.734Z"/>
	<path fill="#B67551" d="M169.841 253.065L169.975 253.757C170.907 258.773 170.651 264.076 170.794 269.164L171.73 296.406L177.801 363.506C180.428 386.261 182.86 410.07 189.653 432.026C192.747 442.029 197.275 454.7 206.103 460.851C217.812 469.011 231.246 475.41 244.093 481.587C272.15 495.079 300.213 508.4 332.235 502.47C361.272 497.092 388.327 482.979 413.5 468.005C423.185 462.244 433.368 454.843 443.894 450.95C442.875 453.115 441.593 455.033 440.09 456.887C430.085 469.233 413.783 478.15 400.108 485.954C384.392 494.923 367.892 503.825 350.861 510.005C342.449 513.057 333.556 515.541 324.624 516.413C311.174 517.727 297.634 516.088 284.662 512.399C273.077 509.104 262.192 503.92 251.477 498.512C237.835 491.627 224.678 484.186 211.864 475.854C205.366 471.629 198.555 467.452 192.571 462.522C174.002 447.227 172.935 403.549 170.81 380.67L166.615 336.37L163.426 273.89L162.92 264.064C162.901 263.724 162.66 261.794 162.783 261.556C164.204 258.807 167.79 255.533 169.841 253.065Z"/>
	<path fill="#FAFBFB" d="M842.03 150.591C844.903 150.436 847.926 150.381 850.555 151.75C856.494 154.844 858.264 160.41 860.126 166.322C861.879 164.655 863.096 162.505 864.841 160.82C868.08 157.693 873.209 155.582 877.75 155.851C882.071 156.106 886.999 159.261 889.681 162.596C892.465 166.057 894.054 170.382 893.487 174.849C892.738 180.739 888.043 185.097 883.601 188.492C889.89 191.109 896.117 190.043 900.671 196.341C902.838 199.338 903.922 203.16 903.229 206.852C902.23 212.18 898.813 217.983 894.202 220.951C889.117 224.222 883.399 221.772 878.643 219.077C877.351 218.346 875.669 216.978 874.227 216.763L873.732 216.75C874.032 219.135 873.891 222.055 873.293 224.388C872.331 228.137 869.365 231.422 866.117 233.39C861.986 235.893 856.907 236.506 852.242 235.316C848.259 234.3 844.473 231.819 842.367 228.222C839.822 223.876 839.931 218.172 841.188 213.439L841.372 212.774L837.034 213.312C830.97 213.881 825.552 213.707 820.75 209.44C817.642 206.679 815.319 202.249 815.312 198.059C815.303 193.389 817.013 188.685 820.387 185.386C824.875 180.999 829.631 180.998 835.512 180.918C832.173 176.923 828.606 171.791 827.115 166.75C826.29 163.96 827.365 161.154 828.853 158.798C831.93 153.929 836.654 151.832 842.03 150.591Z"/>
	<path fill="#010101" d="M857.534 177.571C861.019 177.451 863.879 177.555 867.07 179.232C871.07 181.334 873.613 185.004 874.798 189.307C875.966 193.549 875.285 197.784 872.974 201.557C870.326 205.878 866.271 207.791 861.573 209.045C858.114 209.122 854.935 209.043 851.796 207.353C847.514 205.046 844.544 201.278 843.313 196.575C842.311 192.746 843.125 188.566 845.099 185.187C847.802 180.56 852.59 178.727 857.534 177.571Z"/>
	<path fill="#ECB38A" d="M856.183 181.554C858.876 181.439 861.455 181.296 864.013 182.34C866.873 183.508 869.232 185.865 870.363 188.75C871.368 191.314 871.476 194.828 870.239 197.321C868.405 201.016 865.823 202.623 862.07 204.024C859.61 204.475 857.603 204.582 855.23 203.655C852.199 202.47 849.558 200.017 848.278 197.004C847.163 194.381 847.075 190.544 848.244 187.921C849.868 184.275 852.703 182.917 856.183 181.554Z"/>
	<path fill="#FAFBFB" d="M248.502 574.854C251.05 577.056 253.238 579.722 255.791 581.952C263.318 588.526 272.505 595.387 281.564 599.658L288.86 583.145C290.057 589.634 290.723 595.756 295.183 600.988L295.553 601.414L284.426 747.123L282.292 773.931C281.213 771.581 280.647 768.711 279.918 766.204L275.571 751.148L267.161 716.862C256.658 669.98 251.355 622.739 248.502 574.854Z"/>
	<path fill="#A9DBE2" d="M615.196 734.75L615.282 734.8C616.523 735.949 616.908 737.931 617.453 739.519L620.905 749.235C629.339 771.848 633.198 793.556 631.657 817.721C631.142 825.796 629.062 834.66 629.932 842.643C629.965 842.943 630.126 843.256 630.035 843.544C629.647 844.767 626.597 847.568 625.641 848.787L612.246 866.783C591.332 896.489 574.986 928.485 560.826 961.877C559.704 964.606 558.088 972.116 556.198 973.854C557.034 966.639 559.669 959.058 561.439 952L573.605 902.998L595.198 810.054L615.196 734.75Z"/>
	<path fill="#FAFBFB" d="M344.059 578.562L354.277 600.152L354.779 600.251C366.021 595.624 376.254 587.611 385.373 579.678C382.805 635.562 375.041 691.195 362.15 745.618C358.973 758.586 355.335 772.921 350.201 785.254L337.433 600.502C341.55 593.406 343.064 586.693 344.059 578.562Z"/>
	<path fill="#A9DBE2" d="M813.875 731.117C816.479 738.285 818.41 745.823 820.54 753.148L832.882 794.727L837.508 807.592C838.924 811.144 841.24 814.333 840.943 818.221C840.083 829.486 843.412 841.915 845.854 852.827C854.788 892.748 867.622 932.143 881.296 970.665L891.23 997.568C891.557 998.58 892.657 1000.96 892.615 1001.95C892.534 1003.83 891.225 1006.38 890.524 1008.15L890.253 1008.04L885.992 996.656C870.694 957.855 853.06 921.386 830.737 886.115L809.658 856.124L803.191 847.653C802.458 846.742 800.575 844.994 800.171 843.973C799.88 843.235 800.084 841.076 800.083 840.198C800.076 834.352 800.781 829.436 796.686 824.814L796.226 824.304C796.991 792.973 800.097 759.705 813.875 731.117Z"/>
	<path fill="#60321C" d="M531.673 440.93C535.477 444.247 539.338 447.058 543.691 449.619C539.783 458.338 535.639 466.335 533.953 475.859C532.018 486.793 535.085 498.169 541.784 506.924C545.13 511.296 549.112 515.269 552.187 519.836C568.102 543.462 538.155 556.415 534.622 577.225C531.378 596.336 549.046 603.739 558.051 617.018C573.809 640.254 547.603 648.235 544.267 668.509C542.532 679.057 548.162 685.746 553.991 693.68C546.873 689.673 538.075 684.815 532.843 678.462C522.713 666.16 535.067 651.054 535.972 638.25C536.953 624.369 528.873 616.499 520.743 606.833C516.005 601.2 513.446 594.526 513.08 587.19C512.843 582.45 512.929 577.698 514.226 573.102C517.972 559.84 528.64 548.376 527.965 533.958C527.628 526.778 525.18 520.122 521.43 514.057C513.652 501.477 501.775 491.615 503.21 475.344C503.611 470.793 504.663 465.644 507.395 461.853C509.01 459.612 512.589 457.705 514.745 455.86L531.673 440.93Z"/>
	<path fill="#ECB38A" d="M857.565 710.532L867.018 766.419L872.319 796.648C873.162 802.286 874.211 808.034 874.073 813.75C874.06 814.255 873.965 815.206 874.053 815.665C874.331 817.122 876.567 819.85 877.304 821.352C879.11 825.032 880.519 829.021 881.919 832.869C886.431 845.278 889.733 858.058 892.52 870.951C898.172 897.105 902.24 923.358 905.336 949.925L909.379 983.989C910.024 989.241 910.278 994.681 911.505 999.834C912.168 1002.62 913.796 1005.34 915.157 1007.83C918.195 1013.41 921.761 1018.69 925.241 1024L894.64 1024C894.37 1021.93 893.966 1019.64 894.2 1017.56C894.682 1013.27 897.315 1008.2 898.78 1004.1L900.065 1005.86C902.025 1005.95 901.97 1005.97 903.504 1004.75C903.76 998.85 902.13 993.493 900.779 987.814C896.616 970.312 890.229 953.666 884.916 936.527C875.613 906.514 867.896 876.155 861.739 845.354L857.937 824.121C857.476 821.037 856.752 817.878 856.612 814.765C856.461 811.412 854.995 809.308 853.852 806.275L848.278 790.799L828.067 726.905C828.659 725.828 835.204 723.881 836.933 723.03C844.275 719.418 851.212 715.738 857.565 710.532Z"/>
	<path fill="#FAFBFB" d="M328.57 604.231C329.828 604.123 330.424 603.863 331.565 604.5C332.299 608.992 332.283 613.731 332.632 618.276L334.807 647.513L342.296 753.65L345.16 789.703C345.385 792.595 346.602 797.512 345.783 800.125C340.159 818.081 333.035 835.483 325.355 852.635C322.993 857.911 320.994 863.37 318.211 868.444L317.836 868.34L314.257 860.376L293.348 808.631L288.899 796.569C288.031 794.133 286.971 791.667 287.139 789.036L301.122 604.476L328.57 604.231Z"/>
	<path fill="#ECB38A" d="M745.221 567.175L744.795 585.101L744.196 591.992C749.863 595.406 757.257 597.255 763.5 599.507C777.3 604.485 791.243 609.088 804.583 615.223C800.747 627.666 798.521 641.319 797.346 654.275C787.265 649.346 776.509 647.545 765.333 648.784C745.346 650.999 728.786 662.845 716.512 678.179C713.11 674.561 709.771 670.669 706.063 667.364C698.645 660.752 689.817 655.776 680.571 652.208C664.066 645.837 646.774 647.379 630.824 654.447C629.735 652.852 629.923 645.284 629.726 642.749C628.971 632.988 627.342 623.237 624.402 613.889L684.379 593.646C684.436 591.041 684.521 588.516 684.102 585.932L684.172 582.38C685.313 581.069 684.629 570.346 684.643 567.918C692.387 570.29 699.341 574.089 707.381 575.755C720.622 578.499 734.106 574.41 745.221 567.175Z"/>
	<path fill="#60321C" d="M878.658 685.919C882.077 673.363 887.316 661.543 880.287 649.109C878.571 646.074 876.087 643.676 874.248 640.763C871.316 636.116 870.634 629.836 872.046 624.571C873.514 619.1 877.107 614.644 880.656 610.376C888.37 601.102 895.26 592.977 895.973 580.389C896.29 574.802 895.286 569.423 892.626 564.458C887.51 554.907 873.413 547.118 876.335 534.995L876.485 534.348C878.118 527.733 883.487 521.891 886.936 516.131C897.261 498.886 900.652 475.666 890.11 457.727L884.662 449.049C889.709 446.383 894.196 443.598 898.361 439.646C912.887 453.77 934.032 461.244 934.289 484.914C934.445 499.342 924.744 507.822 916.851 518.426C909.418 528.412 904.467 540.884 905.705 553.498C906.554 562.162 909.448 571.417 914.274 578.687C917.963 584.243 923.284 588.311 927.35 593.505C934.78 602.994 934.896 616.235 928.546 626.312C926.026 630.311 922.802 633.939 919.469 637.274L909.397 646.499C907.417 648.156 904.745 649.795 903.228 651.87C917.138 646.518 930.105 639.083 936.29 624.828C939.344 617.79 939.84 611.15 938.442 603.68C935.781 589.451 921.432 584.074 915.62 572C910.191 560.722 907.772 548.143 911.878 536.04C915.63 524.981 923.764 517.981 930.593 509.017C935.677 502.342 939.295 493.988 940.039 485.607C940.608 479.188 939.648 472.984 936.858 467.158C931.449 455.864 920.12 448.663 909.985 442.033C907.248 440.243 903.637 438.298 901.547 435.813L901.995 435.338C907.303 429.597 909.901 422.226 912.595 415.035C913.979 419.428 915.452 423.612 918.046 427.474C923.763 435.986 932.02 441.442 939.489 448.147C949.409 457.051 953.685 469.105 952.85 482.372C952.401 489.496 951.321 496.632 948.02 503.059C945.105 508.735 939.637 513.158 935.117 517.563C923.242 529.134 912.652 543.711 918.055 561.25L919.25 564.152L919.552 564.847C923.276 573.271 930.188 576.885 936.948 582.375C944.751 588.712 948.478 598.33 948.961 608.196C949.309 615.318 948.596 622.614 946.028 629.313C940.734 643.126 929.779 651.489 918.267 659.995C913.965 663.174 909.289 666.506 906.297 671.033C903.362 675.472 902.427 680.258 902.325 685.492C902.247 689.471 902.571 693.567 904.195 697.252C906.47 702.413 910.056 706.121 915.404 708.064C919.98 709.725 925.387 709.024 930.093 708.257C926.314 711.921 921.861 715.771 916.724 717.367C911.387 716.619 906.505 716.033 901.552 713.72C890 708.327 882.949 697.497 878.658 685.919Z"/>
	<path fill="#547682" d="M237.915 553.75L238.427 553.803C239.621 554.281 239.711 562.469 240.245 564.25C240.585 565.383 241.404 566.364 242.121 567.282L242.494 567.75C241.692 571.11 242.429 576.052 242.601 579.563L244.508 608.536C250.626 685.252 267.987 761.477 295.811 833.24L313.486 874.174L308.581 870.485L277.162 842.005C269.2 833.818 262.27 824.82 255.451 815.679C238.136 792.472 223.741 767.729 211.35 741.583C208.599 735.779 204.768 729.33 203.162 723.147L223.806 704.291C226.836 701.507 230.928 698.496 233.355 695.198C234.295 693.921 234.206 693.706 233.932 692.25C230.79 689.344 225.966 687.497 222.151 685.445L199.909 673.395C200.354 665.808 201.671 658.027 202.62 650.473C205.444 627.969 208.699 604.642 215.942 583.074C218.478 575.523 222.045 565.917 227.865 560.275C230.757 557.471 234.342 555.538 237.915 553.75Z"/>
	<path fill="#547682" d="M394.084 553.095C399.014 554.828 404.866 557.352 408.978 560.597C425.634 573.74 435.189 649.909 437.737 671.932C429.877 675.935 422.025 680.019 413.806 683.25L404.904 686.411C403.503 686.876 401.468 687.278 400.358 688.285C399.542 689.025 399.725 690.424 399.627 691.5C401.994 694.919 407.659 698.176 410.974 700.826C417.214 705.814 423.367 710.78 429.155 716.3L424.077 732.363L416.607 752.527C403.583 785.112 383.338 815.179 359.917 841.142L321.284 876.093C334.734 848.788 345.699 820.316 355.052 791.369C365.884 757.842 374.334 724.042 379.995 689.25L389.873 605.938L391.482 585.5C391.827 580.48 391.158 572.967 393.321 568.579C395.475 564.212 394.586 557.839 394.084 553.095Z"/>
	<path fill="#2E180E" d="M571.657 450.75L572.695 450.685C577.041 463.033 581.306 474.415 588.475 485.5C592.739 492.092 597.389 498.857 602.586 504.75C608.048 510.943 614.543 516.449 621.014 521.541C637.313 534.366 656.635 545.278 677.062 549.688L677.064 581.825L615.952 599.658C613.938 600.25 612.06 600.03 609.996 600.158C607.005 600.343 604.56 601.048 601.879 602.368C588.726 608.843 582.334 621.98 576.814 634.829L567.732 658.351C564.088 669.026 559.721 681.951 561.377 693.378L561.476 694.006C561.029 693.528 561.168 693.746 560.895 693.212C559.459 690.4 557.628 687.79 555.881 685.162C542.241 664.641 566.243 654.444 569.75 636.427C572.287 623.391 565.257 612.177 556.35 603.363C552.313 599.367 547.821 595.605 544.723 590.788C542.18 586.835 541.2 582.168 542.271 577.544L542.404 577C543.733 570.945 548.244 565.548 551.991 560.736C557.263 553.966 562.655 545.977 563.58 537.252L563.654 536.5C565.094 523.271 558.091 515.321 550.212 505.756C546.631 501.408 543.349 497.437 542.028 491.791L541.85 491C538.585 477.014 544.2 464.215 550.411 452.036C557.277 453.575 564.519 453.706 571.099 450.986L571.657 450.75Z"/>
	<path fill="#2E180E" d="M916.724 717.367C915.811 718.174 914.758 718.686 913.653 719.177C901.355 724.643 888.402 723.411 876 719.035C872.08 717.652 868.341 715.734 864.465 714.213L862.334 700.995L862.258 700.267C861.927 697.252 865.151 693.459 866.059 690.49C867.79 684.832 866.392 678.299 865.12 672.674C861.384 656.151 854.417 639.551 846.76 624.453C841.803 614.678 834.348 604.454 823.398 601.14C818.822 599.755 815.119 599.543 810.835 601.797C809.528 602.485 804.733 599.932 803.254 599.319C786.483 592.358 769.154 587.009 751.51 582.782L751.926 549.586C761.499 546.694 770.575 543.247 779.531 538.761C817.751 519.614 845.351 488.078 858.823 447.582C865.003 449.231 870.331 450.469 876.749 450.589L884.67 463.849C888.994 472.118 890.094 479.978 888.699 489.223C887.279 498.636 883.991 508.695 878.585 516.598C875.878 520.555 872.662 524.337 870.667 528.73C866.811 537.218 868.041 546.636 874.157 553.75C878.909 559.278 885.56 564.812 887.967 571.858C894.242 590.224 873.66 603.826 866.924 618.367C862.864 627.134 863.529 636.921 868.802 644.994C871.244 648.733 874.396 652.466 875.899 656.693L876.16 657.457C878.74 664.876 875.361 672.294 873.299 679.375C871.87 684.28 870.939 690.71 871.819 695.806L871.95 696.5C872.45 699.255 873.478 701.632 874.766 704.106C875.506 702.381 875.358 699.753 875.72 697.841C876.481 693.819 877.581 689.865 878.658 685.919C882.949 697.497 890 708.327 901.552 713.72C906.505 716.033 911.387 716.619 916.724 717.367Z"/>
	<path fill="#FAFBFB" d="M626.939 745.831C622.407 733.571 618.646 721.167 616.492 708.25C614.748 697.793 613.924 686.629 618.463 676.735C622.939 666.978 630.984 660.542 640.953 656.971C643.885 655.921 646.833 655.324 649.896 654.812C667.762 651.821 684.053 658.697 698.201 669.06C701.995 671.839 705.706 675.521 708.784 679.086C710.952 681.598 712.994 685.485 715.75 687.245C719.875 686.183 721.405 682.047 723.92 678.856C725.914 676.327 728.065 674.01 730.424 671.817C747.292 656.135 774.491 647.753 795.547 660.265C804.672 665.687 811.652 674.519 814.108 684.923C817.081 697.521 815.046 709.869 810.639 721.872L803.356 739.733C800.019 748.698 797.519 757.866 795.528 767.215C791.482 786.208 790.711 805.883 789.521 825.206C777.325 828.968 764.851 830.891 752.196 832.343C718.469 836.213 684.129 834.842 650.9 827.772L649.488 812.25C648.707 805.967 647.745 799.345 646.063 793.234C644.527 787.651 642.287 782.263 640.282 776.84L632.305 755.804C631.283 753.385 630.308 749.896 628.833 747.75C628.309 746.988 627.661 746.395 626.939 745.831Z"/>
	<path fill="#1C2122" d="M175.872 122.451C179.666 111.545 183.484 103.078 190.934 94.1164C193.892 90.5588 197.322 87.3851 201 84.5885C219.586 70.4558 240.815 63.6981 264.004 62.3798C258.337 70.7982 253.741 79.1443 250.999 88.9691C255.928 82.0102 260.652 75.2572 266.87 69.3519C281.511 55.4486 303.994 46.2414 323.656 42.891C362.223 36.3191 403.588 46.7665 435.243 69.4623C466.898 92.1588 484.581 126.528 490.767 164.476C493.834 183.291 494.097 203.758 492.524 222.712L489.364 251.507L488.25 251.974C482.366 251.344 475.857 251.032 470.697 247.852C465.726 244.788 460.936 239.897 456.847 235.723C451.979 230.754 447 224.847 444.133 218.45C442 213.691 441.056 208.263 440.161 203.144C438.36 192.848 437.579 182.281 435.306 172.101L436.521 171.702C445.304 168.639 454.612 171.699 462.98 174.784L468.586 169.75C469.636 168.618 469.497 168.002 469.336 166.537C464.563 159.602 450.716 155.198 442.858 152.575C439.03 151.297 434.638 149.789 430.551 150.093C427.438 150.325 424.21 151.604 421.263 152.579L406.268 157.728L382.684 164.986C364.902 169.815 346.833 172.537 328.588 174.937C299.768 178.728 270.076 181.503 241.063 178.551C231.782 177.607 222.447 175.474 213.498 172.879L200.368 168.592C199.503 168.28 197.341 167.768 196.677 167.233C194.634 165.585 192.486 159.797 191.38 157.35L181.472 134.492C179.836 130.753 178.325 126.755 176.313 123.209L175.872 122.451Z"/>
	<path fill="#60321C" d="M515.525 251.818C516.751 243.554 519.717 237.584 525.734 231.764C524.911 235.464 522.62 245.537 524.25 248.959L524.927 248.926C528.037 244.057 529.573 237.315 531.28 231.822L538.651 209.462C553.04 170.853 588.124 141.711 628.161 132.882C647.613 128.593 668.066 128.72 687.559 132.696C693.49 133.905 700.441 135.59 705.518 139.098C707.976 140.796 709.747 143.128 710.52 146L710.766 146.87C711.921 151.135 712.895 156.606 712.329 161C712.024 163.366 711.235 165.623 711.404 168.027C714.51 159.631 714.906 151.806 711.649 143.393L711.324 142.527L711.123 142.01C735.268 126.356 767.943 121.68 795.966 127.68C806.969 130.035 817.52 133.488 827.779 138.117L841.097 144.628C833.459 146.652 827.546 149.234 823.378 156.326L822.133 158.555C799.726 143.676 771.55 138.911 745.343 144.308C735.145 146.408 725.465 149.733 716.39 154.835C723.165 153.384 729.479 150.145 736.359 148.691C763.868 142.878 794.005 146.757 817.75 162.456L820.411 164.364L820.428 164.809C820.592 168.317 821.204 170.949 822.75 174.105L823.763 176.213L823.085 176.479C817.066 178.892 812.39 183.296 809.901 189.349C807.765 194.54 807.75 201.119 810.097 206.23C812.71 211.921 817.329 216.705 823.318 218.759C826.363 219.804 829.617 220.136 832.749 220.85C834.566 228.43 837.178 235.073 844.083 239.34C849.133 242.46 856.567 243.952 862.377 242.438C867.553 241.089 872.48 237.76 875.908 233.674C876.644 232.796 879.42 228.217 879.96 228.01C880.195 227.92 880.445 228.149 880.688 228.216C884.676 229.311 888.703 229.315 892.768 228.636C893.681 228.484 895.261 227.936 896.137 228C899.367 228.234 904.515 235.103 905.922 237.5C909.877 244.238 910.023 249.764 908.099 257.17C905.975 265.35 900.933 271.673 893.997 276.403L893.254 276.923C876.147 288.722 851.362 287.941 831.83 284.226C821.735 282.306 811.611 279.487 802.027 275.766C782.126 268.041 763.45 257.379 745.331 246.184C734.868 239.718 723.75 232.696 714.863 224.143C710.511 219.955 707.319 215.676 703.955 210.703L703.265 209.681L710.776 170L710.25 169.1L709.594 169.25C707.612 179.411 705.985 190.182 701.781 199.709C699.596 204.66 696.031 208.982 692.444 212.99C685.79 220.424 678.084 227.025 669.818 232.609C655.222 242.469 638.305 245.466 622.677 253.022C601.845 263.095 582.985 280.27 560.182 285.727C552.186 284.099 544.442 284.305 536.683 281.203C526.264 277.039 519.054 271.387 517.052 259.81C516.664 257.567 516.906 254.554 515.905 252.523L515.525 251.818Z"/>
	<path fill="#010101" d="M682.65 208.75L682.783 209.027C668.256 233.979 636.82 222.911 614.48 232.823C599.242 239.584 587.926 252.178 572.306 258.461C559.276 263.702 545.046 264.519 532.021 259.016C530.857 258.505 529.847 258.039 528.832 257.25C532.146 255.528 535.448 256.995 538.937 257.351C541.748 257.638 544.678 257.592 547.5 257.489C552.243 257.314 556.91 256.378 561.475 255.109C569.777 252.801 577.956 248.429 585.067 243.628C595.535 236.561 604.307 229 616.817 225.75C629.931 222.343 642.714 224.809 655.819 223.213L656.75 223.09C668.074 221.68 675.016 216.915 682.65 208.75Z"/>
	<path fill="#010101" d="M659.839 146.22C672.809 145.472 688.465 147.678 700.431 152.693C702.413 153.523 704.646 154.175 706.323 155.541C701.788 154.225 697.278 152.725 692.641 151.81C675.932 148.516 657.66 148.923 641.022 152.59C614.987 158.326 591.385 174.517 575.586 195.808C569.958 203.393 565.361 211.828 560.281 219.792C552.839 230.679 543.851 240.947 530.899 245.032C532.783 243.158 535.345 241.82 537.475 240.199C540.694 237.75 543.464 234.903 546.046 231.798C558.388 216.955 565.507 198.773 578.481 184.411C599.764 160.85 628.345 147.981 659.839 146.22Z"/>
	<path fill="#010101" d="M717.301 212.25C718.066 212.201 719.901 214.971 720.518 215.728C728.654 225.712 745.062 230.707 757 234.139C787.449 242.892 821.013 246.131 852.617 243.798C857.393 243.446 862.158 243.517 866.835 242.375C875.326 240.302 881.813 236.497 889.347 232.324C888.398 234.302 887.123 235.682 885.618 237.259C882.938 239.427 880.011 241.188 876.967 242.791C869.593 246.673 861.183 248.405 853 249.584C831.253 252.717 807.997 250.328 786.537 246.227C778.062 244.608 769.755 242.984 761.494 240.442C745.572 235.545 725.513 227.713 717.301 212.25Z"/>
	<path fill="#FAFBFB" d="M641.265 852.478C682.039 863.725 726.34 863.888 768 857.692C775.427 856.587 782.6 855.021 789.819 852.976C791.223 852.579 796.559 850.495 797.704 850.722C797.773 850.736 800.318 854.194 800.565 854.516C814.41 872.559 827.273 891.586 838.512 911.365L889.439 1024L556.233 1024C556.065 1016.16 554.665 1007.76 555.513 1000C555.897 996.491 557.391 992.655 558.552 989.336L563.801 975.143C566.7 973.674 568.058 969.26 569.487 966.394L579.988 945C585.939 933.982 593.115 923.25 599.677 912.567C608.965 897.444 617.854 882.631 628.482 868.352C632.591 862.83 636.419 857.395 641.265 852.478Z"/>
	<path fill="#1C333E" d="M194.005 582.628L212.142 573.759C203.664 599.923 199.059 626.457 195.739 653.699C194.819 661.247 193.525 669 193.185 676.577C196.659 679.638 201.228 681.512 205.295 683.678L225.234 694.186L195.316 721.506C198.317 729.751 202.152 737.674 205.843 745.627C217.329 770.373 231.3 793.969 247.345 816.034C262.339 836.652 278.368 855.247 298.577 870.919C303.58 874.799 309.042 879.092 314.544 882.22L315.144 975.42C315.309 979.662 316.652 987.148 314.914 991C309.838 1002.25 304.598 1014.07 297.16 1024L182.398 1024L175.438 1024L155.504 1024L149.498 1024L128.212 1024L83.6837 1024L95.9061 848.26C97.2744 844.368 97.4796 839.518 98.1274 835.405L102.956 805.547C111.802 756.464 121.289 707.444 136.501 659.866C140.375 647.748 143.492 635.393 150.931 624.848C159.632 612.513 171.227 602.098 182.614 592.306C186.219 589.204 190.333 586.275 193.688 582.948L194.005 582.628Z"/>
	<path fill="#1C2122" d="M162.57 802.778C163.2 806.533 162.759 810.255 163.383 813.975C164.645 821.506 164.486 829.858 165.052 837.5C165.876 848.631 167.931 860.454 167.582 871.559C167.399 877.398 166.132 883.218 165.502 889.023L155.142 963.596L151.416 999.623C150.787 1007.7 150.555 1015.98 149.498 1024L128.212 1024C129.134 1021.36 129.561 1018.18 130.118 1015.43L133.472 997.5L145.189 928.771L157.183 849.5C159.362 834.176 162.654 818.264 162.57 802.778Z"/>
	<path fill="#010101" d="M162.57 802.778L160.301 763.066C159.874 755.47 158.915 747.297 159.872 739.751L182.398 1024L175.438 1024L155.504 1024L149.498 1024C150.555 1015.98 150.787 1007.7 151.416 999.623L155.142 963.596L165.502 889.023C166.132 883.218 167.399 877.398 167.582 871.559C167.931 860.454 165.876 848.631 165.052 837.5C164.486 829.858 164.645 821.506 163.383 813.975C162.759 810.255 163.2 806.533 162.57 802.778Z"/>
	<path fill="#A9DBE2" d="M155.504 1024L170.122 895.344L175.438 1024L155.504 1024Z"/>
	<path fill="#1C333E" d="M342.663 1024C334.359 1014.91 328.212 1002.97 323.584 991.652C321.828 987.357 321.981 982.466 321.813 977.891L321.275 959.394L320.973 883.821C335.146 874.348 347.682 863.024 359.512 850.807C396.781 812.32 422.549 765.363 436.406 713.738C433.288 709.77 429.077 706.831 425.187 703.662L410.259 691.852C422.007 687.521 433.926 682.239 444.618 675.705L439.75 637.925C436.183 615.878 430.999 593.465 424.191 572.189L459.644 593.247C476.114 602.762 494.037 611.966 503.255 629.578C506.081 634.978 507.808 641.336 509.269 647.219C517.515 680.428 520.611 714.94 524.796 748.839L533.568 830L543.603 934.501L549.582 1024L507.566 1024L486.11 1024L480.07 1024L457.574 1024L450.522 1024L342.663 1024Z"/>
	<path fill="#010101" d="M341.502 935.158C342.633 935.249 343.832 935.331 344.881 935.796C347.157 936.805 349.427 939.213 350.342 941.533C351.108 943.473 351.057 945.538 350.166 947.426C348.483 950.992 345.814 952.5 342.259 953.724C340.693 953.596 339.088 953.504 337.697 952.7C335.556 951.462 333.261 948.856 332.693 946.403C332.125 943.947 332.566 941.117 334.134 939.101C336.142 936.521 338.41 935.724 341.502 935.158Z"/>
	<path fill="#695248" d="M340.233 941.25C340.955 941.137 341.728 941.176 342.46 941.162C343.669 942.012 343.975 942.179 344.588 943.5C344.355 945.495 344.09 945.553 342.75 946.936L340.25 946.958C338.816 945.985 338.714 945.853 338.054 944.25C338.542 942.529 338.915 942.377 340.233 941.25Z"/>
	<path fill="#010101" d="M338.989 902.552C340.245 902.359 341.453 902.222 342.726 902.333C345.452 902.571 347.671 904.448 349.25 906.586C350.7 908.55 351.055 911.42 350.505 913.75C349.687 917.209 347.473 918.75 344.563 920.413C343.055 920.629 341.512 920.804 340 920.499C337.201 919.934 335.028 918.136 333.552 915.75C332.334 913.782 332.131 910.73 332.769 908.507C333.609 905.581 336.446 903.82 338.989 902.552Z"/>
	<path fill="#695248" d="M340.789 908.25C341.82 908.158 342.275 908.265 343.25 908.531C344.182 909.588 344.352 910.104 344.503 911.5C344.022 913.034 343.487 913.379 342.25 914.294C341.417 914.353 340.813 914.234 340 914.079C338.525 912.688 338.662 912.653 338.497 910.75C339.109 909.341 339.54 909.026 340.789 908.25Z"/>
	<path fill="#1C2122" d="M473.86 807.535L507.566 1024L486.11 1024L480.404 961.5L473.985 909.043L470.08 880.742C469.21 875.398 467.419 869.576 467.44 864.183C467.466 857.628 468.917 850.565 469.693 844.045L473.86 807.535Z"/>
	<path fill="#010101" d="M450.522 1024C448.328 943.482 459.545 863.93 471.938 784.579L476.646 754.623C477.346 750.074 477.54 744.263 479.131 740C479.563 741.284 479.166 743.514 479.084 744.901L478.258 756.962L473.86 807.535L469.693 844.045C468.917 850.565 467.466 857.628 467.44 864.183C467.419 869.576 469.21 875.398 470.08 880.742L473.985 909.043L480.404 961.5L486.11 1024L480.07 1024L457.574 1024L450.522 1024Z"/>
	<path fill="#A9DBE2" d="M457.574 1024C457.4 985.976 458.252 948.459 462.044 910.592C462.766 903.377 462.599 894.777 464.552 887.907L480.07 1024L457.574 1024Z"/>
	<path fill="#ECB38A" d="M571.927 409.328C570.098 396.467 568.341 382.863 568.549 369.869C569.05 338.627 580.522 305.389 599.404 280.488C601.992 277.076 604.817 273.274 607.95 270.369C616.048 262.861 628.211 257.274 638.5 253.532C643.906 251.565 649.473 250.128 654.803 247.936C666.563 243.099 677.045 236.211 686.815 228.129C691.481 224.269 696.313 220.007 699.916 215.121C706.08 226.689 714.922 234.231 725.644 241.56C728.106 243.243 730.932 244.631 733.25 246.486C734.478 247.468 735.341 248.877 736.372 250.059L742.833 256.866C758.14 271.885 775.721 287.797 796.618 294.195C803.075 296.171 809.774 297.875 816.004 300.497C825.205 304.371 834.386 310.584 842.102 316.884C848.064 321.751 853.503 327 860.125 331.026C860.824 332.77 860.344 336.038 860.323 337.988L860.384 351.986C860.562 372.199 861.52 392.863 859.207 412.974C857.449 428.255 853.23 444.174 847.207 458.316C843.006 468.182 837.18 480.124 829.837 488.095C829.003 488.372 828.322 488.569 827.618 489.122C824.576 491.508 822.12 494.88 819.195 497.462C812.088 503.737 804.176 509.966 796.355 515.352C776.685 528.897 754.712 536.485 731.833 542.55C728.91 543.324 720.292 544.78 719.013 547.5C718.787 547.981 718.7 548.545 718.595 549.062L712.555 548.989C711.851 546.859 712.02 547.276 709.952 546.764C697.984 543.796 685.391 540.963 673.815 536.725C656.009 530.206 639.804 520.184 625.257 508.115C613.067 498.002 602.22 484.76 594.761 470.789C591.902 465.433 589.657 459.76 587.312 454.168C583.406 444.855 579.68 435.476 577.053 425.715L574.085 413.703C573.913 413.028 573.661 411.049 573.29 410.5C572.955 410.003 572.381 409.719 571.927 409.328Z"/>
	<path fill="#010101" d="M807.321 390.624L807.356 391.089C807.225 392.933 804.751 395.879 803.532 397.258C798.562 402.88 792.109 406.451 784.5 406.724C778.063 406.955 770.425 404.219 765.675 399.824C762.632 397.008 758.285 391.167 758.087 386.96C762.38 394.435 768.296 399.995 776.847 402.276C784.126 404.219 791.328 403.212 797.843 399.398C801.563 397.22 804.53 393.847 807.321 390.624Z"/>
	<path fill="#010101" d="M703.466 394.75L704.241 394.752C703.044 396.773 700.744 398.391 699.086 400.077C693.143 406.122 686.226 415.823 686.645 424.696C686.881 429.718 688.856 434.71 692.584 438.123C697.602 442.718 704.853 445.753 711.715 445.281C721.056 444.639 727.194 439.979 733.171 433.25C733.613 434.498 732.708 435.636 732.18 436.823C729.985 440.28 726.813 443.417 723.25 445.463C716.831 449.149 709.08 449.755 701.988 447.777C695.236 445.894 689.156 441.466 685.786 435.25C682.704 429.564 682.19 423.541 684.182 417.381C687.107 408.338 695.139 399.143 703.466 394.75Z"/>
	<path fill="#010101" d="M754.775 372.517C754.092 371.338 754.346 370.153 754.408 368.822C754.826 359.789 759.437 350.037 766.232 344.065C772.925 338.183 782.145 334.957 791.031 336.924C794.132 337.61 797.053 339.008 800.25 339.149C801.273 338.471 801.969 337.983 802.645 336.938L803.164 336.109L803.827 336L804.162 341.362C806.711 344.445 810.916 346.91 814.101 349.409C818.63 346.789 821.227 343.475 824.305 339.295L824.428 339.819C824.879 343.796 823.607 351.196 821.067 354.267L820.75 354.637L821 355.362C825.634 355.945 829.249 356.166 833.596 354.205L834.331 353.868C833.346 355.835 832.235 357.834 830.717 359.445C825.71 364.759 819.743 368.739 812.569 370.32C810.892 361.639 807.328 352.73 799.809 347.465C793.412 342.985 785.058 340.44 777.294 342.118C770.293 343.632 764.289 348.74 760.624 354.766C757.312 360.21 756.071 366.373 754.775 372.517Z"/>
	<path fill="#010101" d="M671.356 389.11L671.384 389.52C671.211 392.497 667.432 396.881 665.356 399.031C660.19 404.384 652.742 407.417 645.309 407.415C637.403 407.413 629.788 404.086 624.25 398.483C617.166 391.317 614.537 383.367 614.552 373.469L613.918 373.216C605.235 369.68 600.537 364.623 596.924 355.979C599.645 357.201 604.307 359.966 607.25 359.831C608.368 358.945 609.14 358.656 609.503 357.25C606.636 353.387 604.062 347.738 604.75 342.822L605.75 342.488C608.438 345.064 610.791 348.033 613.847 350.18C613.993 350.282 615.328 351.223 615.373 351.214C615.666 351.154 619.724 346.598 620.475 345.96C625.228 341.919 630.94 338.559 637.165 337.536L638 337.407C641.089 336.899 644.224 336.787 647.336 337.218C655.543 338.353 662.698 343.539 667.557 350.075C671.415 355.263 675.511 363.649 674.593 370.219C671.786 360.69 667.141 350.439 658.062 345.433C651.802 341.982 644.015 341.268 637.223 343.499C629.516 346.032 623.372 351.743 619.854 358.998C616.287 366.354 614.369 375.422 617.25 383.29C620.203 391.357 626.164 397.946 634.003 401.469C641 404.614 649.936 404.78 657.079 401.913C663.584 399.302 667.661 394.879 671.356 389.11Z"/>
	<path fill="#010101" d="M781.707 296.211C789.034 295.876 796.125 296.573 803.172 298.675C813.332 301.705 822.095 306.74 828.433 315.424C830.645 318.454 832.363 321.895 834.144 325.186L812.113 316.387C798.73 311.451 783.923 309.757 769.895 312.809C766.729 313.498 761.784 315.849 758.75 315.277C758.215 314.655 757.81 314.113 757.498 313.345C756.034 309.746 755.468 305.336 757.09 301.75C758.702 300.419 761.038 299.764 763.027 299.162C769.17 297.304 775.335 296.663 781.707 296.211Z"/>
	<path fill="#2E180E" d="M780.115 302.685L784.397 302.394C795.885 302.334 807.185 304.717 817.039 310.783C819.168 312.094 821.338 313.257 823.127 315.031L807.35 308.446C797.758 305.578 788.515 304.3 778.5 305.442C772.776 306.095 767.189 307.575 761.5 308.361L761.486 307.75C766.093 304.14 774.378 303.487 780.115 302.685Z"/>
	<path fill="#010101" d="M636.27 294.188C641.499 293.484 647.495 293.912 652.692 294.739C657.361 295.482 666.975 296.949 669.745 300.75C670.188 303.579 669.887 307.571 668.817 310.25C668.736 310.451 668.636 310.643 668.534 310.834C667.061 313.61 664.624 312.69 662.087 312.139C658.083 311.269 654.007 310.176 649.935 309.717C638.024 308.373 627.252 309.988 616.203 314.462C607.188 318.069 601.098 324.551 593.786 330.544C595.116 322.866 597.3 316.984 602.226 310.807C610.511 300.417 623.476 295.718 636.27 294.188Z"/>
	<path fill="#2E180E" d="M637.864 300.204C645.147 299.604 657.461 300.624 663.819 304.678L663.933 306.75C663.129 307.374 663.548 307.338 662.73 307.054C654.723 304.277 646.572 302.433 638.063 302.522C632.077 303.21 626.318 304.157 620.577 306.069C617.674 307.036 615.005 308.537 612.088 309.502C618.779 303.32 629.139 301.129 637.864 300.204Z"/>
	<path fill="#010101" d="M723.925 464.107C727.853 464.404 731.358 465.657 735.149 466.577C741.904 468.215 749.731 467.202 756.295 465.151C751.659 471.243 745.712 476.878 739.207 480.947C728.914 487.385 716.871 489.249 705.047 486.484C691.646 483.016 681.029 475.371 672.538 464.55L673.393 464.861L674.665 465.314C683.082 468.588 692.381 464.642 701 464.305C704.194 464.179 707.426 464.528 710.5 465.404C711.653 465.733 714.258 466.961 715.316 466.933C715.854 466.919 717.488 466.093 718.084 465.869C720.011 465.146 721.928 464.6 723.925 464.107Z"/>
	<path fill="#C93E3E" d="M700.147 466.667C704.159 466.337 707.535 467.321 711.175 468.914C711.788 469.182 713.844 470.377 714.412 470.368C714.701 470.363 715.934 469.648 716.22 469.514C718.353 468.514 721.88 466.466 724.235 466.235C726.194 466.043 730.581 467.903 732.802 468.38L742.49 469.998C738.097 471.796 732.332 472.252 727.616 472.875C712.922 474.666 696.659 473.633 682.684 468.614C688.778 468.589 694.168 467.729 700.147 466.667Z"/>
	<path fill="#C93E3E" d="M677.33 468.15C680.974 469.676 684.619 471.549 688.373 472.746C703.362 477.525 721.656 478.001 736.844 473.841C741.278 472.627 745.471 470.712 749.762 469.08C749.415 470.208 746.303 472.465 745.303 473.376C737.942 479.465 728.521 484.232 718.875 484.889C702.707 485.991 689.078 478.434 677.33 468.15Z"/>
	<path fill="#FAFBFB" d="M754.775 372.517C756.071 366.373 757.312 360.21 760.624 354.766C764.289 348.74 770.293 343.632 777.294 342.118C785.058 340.44 793.412 342.985 799.809 347.465C807.328 352.73 810.892 361.639 812.569 370.32C812.537 373.814 812.604 377.122 811.657 380.509L811.421 381.381C810.816 383.553 810.045 385.692 808.967 387.678C808.671 388.223 807.288 390.288 807.321 390.624C804.53 393.847 801.563 397.22 797.843 399.398C791.328 403.212 784.126 404.219 776.847 402.276C768.296 399.995 762.38 394.435 758.087 386.96L758.128 386.834C755.849 382.129 755.269 377.635 754.775 372.517Z"/>
	<path fill="#010101" d="M777.707 354.08C781.473 353.802 785.053 353.807 788.494 355.622C792.447 357.708 795.118 361.995 796.385 366.189C798.118 371.923 797.345 377.497 794.453 382.75C791.756 387.649 787.885 390.119 782.605 391.484C779.462 391.823 776.452 391.719 773.5 390.49C769.128 388.672 765.828 385.267 764.053 380.882C761.998 375.809 761.921 369.728 764.259 364.74C766.768 359.385 772.29 355.908 777.707 354.08Z"/>
	<path fill="#FAFBFB" d="M776.475 370.75L777.088 370.583C778.718 370.321 779.422 370.695 780.75 371.571L780.842 372.489L779.75 373.543C777.825 373.881 777.71 373.875 775.948 373.035L775.586 372L776.475 370.75Z"/>
	<path fill="#FAFBFB" d="M776.718 360.25C777.226 360.064 777.419 359.968 778.007 359.892C779.389 359.714 780.691 359.978 781.75 360.905C782.874 361.889 783.274 363.57 783.04 365C782.772 366.637 781.637 367.301 780.455 368.259C778.726 368.597 777.806 369.195 776.278 368.1C774.783 367.028 774.395 365.466 774.079 363.75C774.789 361.751 775.139 361.543 776.718 360.25Z"/>
	<path fill="#FAFBFB" d="M671.356 389.11C667.661 394.879 663.584 399.302 657.079 401.913C649.936 404.78 641 404.614 634.003 401.469C626.164 397.946 620.203 391.357 617.25 383.29C614.369 375.422 616.287 366.354 619.854 358.998C623.372 351.743 629.516 346.032 637.223 343.499C644.015 341.268 651.802 341.982 658.062 345.433C667.141 350.439 671.786 360.69 674.593 370.219C674.287 374.439 674.667 378.342 673.625 382.5L673.447 383.25C673.032 384.947 672.379 386.435 671.667 388.025C671.323 388.794 671.389 388.462 671.356 389.11Z"/>
	<path fill="#010101" d="M647.299 353.648C650.335 353.421 653.589 353.586 656.464 354.685C660.967 356.408 664.33 360.009 666.25 364.391C668.692 369.966 669.065 375.011 666.68 380.639C664.153 386.601 659.758 389.998 653.921 392.344C649.79 392.926 646.078 393.124 642.25 391.036C638.204 388.829 635.399 384.719 634.149 380.332C632.344 373.997 632.528 367.516 635.995 361.75C638.778 357.121 642.187 354.879 647.299 353.648Z"/>
	<path fill="#FAFBFB" d="M645.198 370.555C647.351 370.513 648.308 370.19 650.13 371.408C650.506 372.416 650.672 372.878 650.469 373.974C650.264 375.079 649.878 375.007 649 375.572L647.222 374.776L645.75 375.145C644.082 375.451 643.994 375.363 642.607 374.48L642.458 373.25C643.288 371.527 643.602 371.473 645.198 370.555Z"/>
	<path fill="#FAFBFB" d="M644.089 360.75L645.048 360.595C646.634 360.459 647.801 361.285 648.932 362.25C649.647 363.958 649.687 364.611 649.351 366.432C648.408 367.919 647.86 368.412 646.312 369.25C645.727 369.393 645.387 369.51 644.75 369.496C643.411 369.465 642.227 368.634 641.582 367.5C640.975 366.431 640.901 365.097 641.19 363.925C641.636 362.123 642.594 361.586 644.089 360.75Z"/>
	<path fill="#ECB38A" d="M250.425 194.559C290.205 197.767 330.999 194.873 369.968 186.168L405.758 176.626C411.847 179.421 419.565 180.365 426.097 182.085C427.223 188.41 426.647 195.019 427.753 201.5C431.323 222.437 444.395 243.874 461.854 256.131L462.718 256.718L443.894 450.95C433.368 454.843 423.185 462.244 413.5 468.005C388.327 482.979 361.272 497.092 332.235 502.47C300.213 508.4 272.15 495.079 244.093 481.587C231.246 475.41 217.812 469.011 206.103 460.851C197.275 454.7 192.747 442.029 189.653 432.026C182.86 410.07 180.428 386.261 177.801 363.506L171.73 296.406L170.794 269.164C170.651 264.076 170.907 258.773 169.975 253.757L169.841 253.065C173.011 249.401 175.756 245.038 178.389 240.972C189.308 224.108 195.347 207.321 195.503 187.214C209.474 193.548 224.892 196.164 240.158 196.093C242.65 196.081 246.26 196.325 248.622 195.492C249.308 195.251 249.839 194.977 250.425 194.559Z"/>
	<path fill="#010101" d="M325.078 465.25C325.807 465.168 325.377 465.151 326.344 465.5L325.927 466.25C324.336 467.264 322.877 468.027 321.043 468.515L320.25 468.714C315.618 469.902 310.109 469.226 305.479 468.222C304.632 467.687 303.924 467.087 303.149 466.45L303.5 465.89C310.905 466.895 317.772 466.681 325.078 465.25Z"/>
	<path fill="#010101" d="M290.139 446.25C292.251 445.583 297.004 447.466 299.502 447.786C307.454 448.802 316.209 448.966 324.19 448.278C326.965 448.039 329.714 447.538 332.427 446.917C333.975 446.562 335.925 445.722 337.401 446.25L336.116 447.812L334.085 449.026C325.009 454.059 308.008 453.87 298.205 450.846C295.477 450.004 291.514 448.88 290.139 446.25Z"/>
	<path fill="#010101" d="M237.047 247.238C246.267 247.132 261.304 246.576 269.323 251.768C272.377 253.746 274.395 256.912 274.971 260.5C275.609 264.475 274.493 268.279 272.057 271.443C270.161 273.904 267.409 275.951 264.328 276.59C258 277.904 250.19 275.827 243.75 275.568C234.972 275.214 226.52 275.82 217.818 276.867C213.093 277.835 208.425 278.768 203.819 280.229L188.154 285.921L187.609 281.719C186.903 273.565 186.801 264.709 192.591 258.206C200.902 248.869 225.258 247.626 237.047 247.238Z"/>
	<path fill="#1C2122" d="M229.36 253.208C238.451 252.173 248.668 252.841 257.738 253.775C260.525 254.062 264.736 254.229 267.021 255.878C268.657 257.06 269.434 259.102 269.649 261.049C269.998 264.192 269.14 267.412 266.948 269.75C265.872 270.898 264.348 271.793 262.75 271.853C258.752 272.002 254.257 270.858 250.231 270.532C242.043 269.868 234.073 269.971 225.883 270.553C213.667 271.989 202.304 274.351 191.377 280.251C191.463 274.502 191.849 267.453 195.814 262.925C202.367 255.441 220.082 253.906 229.36 253.208Z"/>
	<path fill="#010101" d="M381.441 247.713C393.872 246.794 407.46 248.137 419.716 250.22C426.686 251.404 435.16 253.836 439.311 260.023C444.17 267.268 444.024 278.168 442.474 286.392L422.721 279.502C416.626 277.596 409.535 276.981 403.171 276.461C396.301 275.9 389.399 275.342 382.5 275.566C377.258 275.735 371.71 276.722 366.5 276.389C364.6 276.268 363.019 275.759 361.435 274.694C357.925 272.334 355.792 268.949 355.016 264.811C354.404 261.55 354.952 257.569 356.912 254.823C360.224 250.182 366.202 249.243 371.478 248.53L381.441 247.713Z"/>
	<path fill="#1C2122" d="M379.858 253.214L380.319 253.164C392.886 252.433 406.156 253.171 418.5 255.49C423.344 256.4 429.155 257.435 432.974 260.772C438.559 265.653 438.92 273.29 439.408 280.128C435.047 277.862 430.517 276.422 425.847 274.939C411.964 271.137 397.117 269.569 382.731 270.072L370.316 270.823C368.326 270.951 366.038 271.354 364.25 270.311C362.192 269.11 360.542 266.575 360.155 264.25C359.772 261.951 359.859 259.581 361.406 257.72C364.969 253.43 374.709 253.584 379.858 253.214Z"/>
	<path fill="#010101" d="M382.631 288.609C389.572 288.007 396.178 288.581 402.375 291.968C409.587 295.91 414.765 302.884 416.932 310.75C419.21 319.02 417.992 327.91 413.721 335.319C409.326 342.945 402.191 347.112 393.936 349.402C386.778 350.544 379.909 350.19 373.441 346.596C366.04 342.482 360.526 335.213 358.377 327.019C356.194 318.691 357.463 309.51 362.062 302.2C366.931 294.458 373.904 290.496 382.631 288.609Z"/>
	<path fill="#FAFBFB" d="M384.636 291.604C390.783 291.373 395.916 291.966 401.3 295.266C407.732 299.207 412.293 306.125 413.981 313.438C415.601 320.457 413.86 328.454 409.996 334.477C405.648 341.253 399.075 344.329 391.456 346.002C384.518 346.746 378.463 345.565 372.578 341.735C366.969 338.084 362.801 331.627 361.467 325.099C359.958 317.707 361.062 310.334 365.27 303.947C369.98 296.796 376.381 293.241 384.636 291.604Z"/>
	<path fill="#010101" d="M384.993 298.551C388.7 298.307 391.705 298.455 395.138 300.027C399.681 302.106 403.54 305.765 405.257 310.519C407.249 316.029 406.795 322.881 404.061 328.074C401.202 333.505 396.441 336.648 390.763 338.479C386.356 339.548 382.15 338.68 378.25 336.407C373.616 333.706 371.016 329.822 369.633 324.71C368.182 319.344 368.773 312.326 371.694 307.569C374.709 302.658 379.571 299.974 384.993 298.551Z"/>
	<path fill="#FAFBFB" d="M384.702 309.75C385.393 309.664 386.193 309.589 386.891 309.702C388.21 309.915 389.81 310.847 390.521 312C391.304 313.271 391.5 314.313 391.031 315.75C390.548 317.233 389.041 317.922 387.75 318.507C386.833 318.708 385.694 318.914 384.75 318.705C383.436 318.414 382.511 317.804 381.835 316.631C381.118 315.389 380.842 313.825 381.501 312.5C382.235 311.027 383.303 310.481 384.702 309.75Z"/>
	<path fill="#010101" d="M238.205 286.625C244.827 286.144 251.965 288.283 257.509 291.894C264.995 296.771 269.659 304.328 271.25 313.025C272.808 321.543 270.62 330.787 265.578 337.815C260.442 344.976 252.967 348.947 244.391 350.359C237.602 350.75 230.941 349.213 225.25 345.406C218.455 340.859 213.112 333.399 211.563 325.334C209.897 316.666 211.047 307.429 216.103 300.024C221.44 292.206 229.115 288.331 238.205 286.625Z"/>
	<path fill="#FAFBFB" d="M235.354 290.606C242.074 289.916 247.741 290.268 253.891 293.39C260.361 296.675 265.468 303.187 267.575 310.089C270.002 318.038 268.979 326.047 265.089 333.325C261.256 340.495 255.477 344.602 247.86 346.967C241.994 348.311 235.769 347.584 230.363 344.957C223.376 341.562 217.774 335.36 215.311 327.965C212.881 320.67 213.497 311.869 217.064 305.051C221.106 297.324 227.15 293.117 235.354 290.606Z"/>
	<path fill="#010101" d="M240.291 298.146C244.222 297.873 248.041 298.215 251.57 300.116C256.33 302.679 259.654 307.188 261.201 312.313C262.749 317.444 262.395 323.271 259.8 327.997C256.594 333.836 251.905 336.844 245.674 338.683C241.355 339.256 237.079 338.537 233.25 336.414C228.702 333.891 225.702 329.199 224.378 324.26C222.911 318.784 223.27 313.08 226.24 308.135C229.505 302.701 234.179 299.546 240.291 298.146Z"/>
	<path fill="#FAFBFB" d="M237.402 309.25L239.75 309.114C241.358 309.78 242.528 310.497 243.25 312.16C243.782 313.385 243.871 314.834 243.368 316.082C242.679 317.791 241.365 318.385 239.75 319.019C238.674 319.093 237.578 318.996 236.5 318.954C235.548 318.351 234.788 317.941 234.221 316.921C233.495 315.616 233.318 314.161 233.796 312.742C234.424 310.876 235.731 310.101 237.402 309.25Z"/>
	<path fill="#010101" d="M306.54 311.75C308.222 311.877 309.556 311.626 310.851 312.75L310.768 344.308C315.839 343.843 320.669 343.62 325.759 344.075C334.797 344.883 344.225 349.17 350.027 356.25C356.883 364.616 357.935 375.278 356.863 385.671C370.413 387.634 380.998 393.493 389.333 404.5C392.418 408.574 394.833 413.098 397.403 417.5C399.828 421.653 402.777 426.918 407.431 428.869C409.039 429.543 411.418 429.873 413 429.022C416.308 427.242 416.253 422.642 417.25 419.477L418.25 419.03L419.25 419.459C420.448 421.737 420.157 424.786 419.881 427.291C419.097 434.399 415.116 441.841 409.399 446.152C399.566 453.564 383.799 453.426 372.158 451.786C351.672 448.899 329.312 441.712 316.383 424.532L312.22 417.994C308.082 425.32 303.201 431.518 296.501 436.739C280.133 449.495 257.5 454.347 237.1 451.734C228.873 450.68 220.69 447.392 215.589 440.541C211.857 435.528 209.705 427.144 210.932 421C211.252 419.394 211.359 418.887 212.75 417.997C215.085 418.91 214.246 425.603 217.5 427.966C219.574 429.472 222.501 429.981 225 429.586C231.596 428.544 234.964 416.358 237.5 411.019C238.986 407.892 240.797 404.754 242.904 402.006C251.639 390.612 263.967 387.42 277.517 385.532C276.588 376.022 277.732 365.063 283.639 357.192C289.1 349.914 297.613 345.984 306.437 344.804L306.01 321.163C306.007 318.289 305.54 314.413 306.54 311.75Z"/>
	<path fill="#B67551" d="M346.859 392.385C346.281 394.013 345.388 395.454 344.358 396.839C339.733 403.057 331.121 405.503 323.779 406.587C314.224 407.997 302.581 406.485 294.75 400.377C288.641 395.613 285.398 388.527 284.589 380.938C283.833 373.847 285.164 364.922 289.911 359.328C295.077 353.241 304.056 350.06 311.819 349.469L311.439 349.726C309.386 351.09 307.15 352.048 305.066 353.341C298.762 357.252 294.367 362.135 292.719 369.512C291.704 374.057 291.93 378.592 293.401 383L293.602 383.617C295.588 389.485 300.311 394.503 305.828 397.201C314.913 401.643 324.941 402.18 334.478 398.771C339.11 397.115 342.569 394.267 346.859 392.385Z"/>
	<path fill="#ECB38A" d="M311.819 349.469C321.701 347.922 332.082 348.709 340.375 354.886C346.112 359.16 349.41 365.802 350.318 372.828C351.189 379.573 350.147 386.415 346.859 392.385C342.569 394.267 339.11 397.115 334.478 398.771C324.941 402.18 314.913 401.643 305.828 397.201C300.311 394.503 295.588 389.485 293.602 383.617L293.401 383C291.93 378.592 291.704 374.057 292.719 369.512C294.367 362.135 298.762 357.252 305.066 353.341C307.15 352.048 309.386 351.09 311.439 349.726L311.819 349.469Z"/>
	<path fill="#1C2122" d="M274.797 391.174C276.096 390.991 277.166 390.991 278.461 391.086L281.978 397.891C287.927 407.465 297.129 411.345 307.666 413.826C305.491 417.591 303.228 421.253 300.388 424.563C288.419 438.517 269.996 445.031 252.125 446.486C247.468 446.788 242.695 446.863 238.066 446.193L237.25 446.068L235.625 445.828C228.19 444.593 222.632 441.576 218.299 435.396C220.523 435.709 222.882 436.139 225.122 435.83C237.77 434.081 240.073 414.346 246.858 405.712C253.989 396.636 263.629 392.604 274.797 391.174Z"/>
	<path fill="#1C2122" d="M355.435 390.984C359.029 391.662 362.428 391.962 365.952 393.19C378.298 397.489 385.324 408.171 391.178 419.12C393.581 423.612 395.835 428.371 399.376 432.11C403.281 436.232 407.206 436.097 412.507 436.224L409.372 439.25C400.626 446.781 387.498 446.892 376.638 445.938C362.306 444.197 345.705 440.329 333.731 431.91L333.002 431.392C327.981 427.895 320.532 420.995 318.855 414.821C329.398 413.313 341.7 411.701 348.717 402.719C351.642 398.976 353.443 395.288 355.435 390.984Z"/>
	<path fill="#A9DBE2" d="M77.3553 1024L-0 1024L0 -0L1024 0L1024 1024L932.754 1024L921.428 1005.5C919.974 1002.88 918.342 1000.16 917.574 997.25C916.694 993.906 916.535 990.139 916.128 986.699L913.776 966.611L904.355 897.043C900.863 877.608 897.167 858.317 891.123 839.484L884.966 822.75C883.837 820.018 882.072 817.097 881.411 814.227C879.279 804.974 878.713 794.871 877.226 785.428L866.183 722.074C882.395 728.695 897.678 732.771 914.592 725.845C923.125 722.351 931.481 716.723 936.715 709.001C939.485 704.913 941.359 700.394 943.255 695.862C936.661 701.233 930.224 704.49 921.5 703.462C918.041 703.054 914.243 701.031 912.163 698.198C908.859 693.697 908.351 687.036 909.18 681.635C910.82 670.946 921.915 665.33 929.871 659.437C942.863 649.814 952.942 636.567 955.194 620.188C957.401 604.142 953.531 588.787 941.145 577.859C936.862 574.08 931.734 571.283 928.296 566.612C924.964 562.086 923.385 556.727 923.47 551.141C923.658 538.85 931.599 529.897 939.999 521.849C943.958 518.056 948.259 514.458 951.346 509.88C955.74 503.363 957.736 495.595 958.863 487.916C959.875 481.019 959.604 473.639 958.183 466.809C956.742 459.887 953.96 453.531 949.263 448.203C941.66 439.579 931.356 434.112 924.442 424.619C921.886 421.11 918.004 414.842 918.242 410.387C918.336 408.639 922.34 403.345 923.269 401.449C926.918 394.003 930.07 385.719 931.311 377.495C933.138 365.388 932.612 352.508 927.944 341.067C924.721 333.167 919.996 326.31 914.959 319.485C925.425 306.499 927.834 290.94 927.595 274.682C927.292 253.99 916.958 237.358 902.456 223.233C903.791 221.932 904.992 220.447 906.033 218.9C909.588 213.616 910.596 206.322 909.245 200.158C907.586 192.588 903.356 188.841 897.076 184.975L899.522 178.446C901.182 172.197 900.435 166.759 897.038 161.192C893.621 155.592 887.694 151.23 881.291 149.75C876.468 148.635 870.925 149.291 866.5 151.545C865.355 152.128 864.17 153.318 863.018 153.749C862.167 154.068 858.892 149.954 858.045 149.158C855.004 146.299 851.004 144.039 847.486 141.826C834.491 133.649 820.801 127.173 805.936 123.193C774.903 114.883 739.003 117.76 710.961 134.02C708.562 133.23 706.362 131.785 704.056 130.75C701.153 129.447 697.957 128.465 694.903 127.578C685.853 124.95 676.044 123.767 666.646 123.269C639.814 121.846 613.804 127.128 590.2 140.236C565.23 154.102 545.152 176.432 534.093 202.742C532.367 206.85 530.82 210.996 529.494 215.25C529.11 216.483 528.429 220.242 527.705 221.106C526.627 222.392 523.818 223.637 522.369 224.75C516.062 229.594 511.886 236.827 509.75 244.419C506.827 254.808 507.305 266.228 512.564 275.7C508.743 292.387 510.179 311.342 516.507 327.25C517.406 329.51 518.413 331.728 519.6 333.853C519.951 334.481 521.405 336.495 521.479 337.073C521.509 337.308 516.37 345.415 515.84 346.541C511.404 355.957 508.66 367.464 506.499 377.659C504.491 387.135 504.163 399.011 507.216 408.25C509.093 413.931 512.018 418.753 515.27 423.722L491.437 443.75C480.205 455.248 473.72 470.338 474.052 486.5C474.23 495.171 476.525 503.3 481.926 510.199C487.116 516.827 494.494 522.069 500.465 528.027C516.333 543.859 498.343 555.551 490.333 568.789C487.611 573.286 485.984 578.196 486.036 583.5C486.155 595.714 494.96 604.751 502.485 613.373L500.763 613.331C499.819 612.633 499.76 612.738 498.663 612.624C495.273 609.289 491.876 605.737 487.98 602.994C481.05 598.114 473.494 593.905 466.25 589.506L432.406 569.154C428.177 566.691 423.116 564.9 419.111 562.25C418.311 561.72 417.819 560.878 417.25 560.132C415.648 558.031 413.761 555.848 411.625 554.292C408.908 552.313 393.852 546.243 393.63 545.954C392.963 545.085 392.312 538.999 392.009 537.538C390.795 531.682 389.585 524.924 387.02 519.508C385.289 515.856 382.325 512.823 378.32 511.773C377.732 511.618 374.911 511.237 374.605 510.889C374.245 510.48 374.317 507.972 374.346 507.459C376.273 505.878 378.752 504.904 380.976 503.806L392.688 497.96C403.342 492.447 413.971 486.407 423.907 479.698C432.268 474.054 440.222 468.063 446.351 459.953C448.849 456.647 450.815 454.139 451.257 449.875L455.748 399.075C464.067 403.363 471.851 405.981 481.17 402.929C490.57 399.85 496.721 392.224 500.996 383.653C509.483 366.634 511.882 343.443 505.655 325.399C502.091 315.071 495.511 305.731 485.461 300.959L483.947 300.256C484.698 296.919 486.503 293.525 487.703 290.289C489.759 284.746 491.415 279.085 492.68 273.31C495.438 260.71 497.206 247.493 498.546 234.672C503.16 190.533 500.122 141.593 475.972 103.059C454.41 68.6551 419.45 46.884 380.237 38.1041C345.889 30.4136 307.441 34.1399 277.306 53.2136L272.599 56.117L271.994 55.9783C267.104 54.9556 261.685 55.5819 256.756 56.1015C237.226 58.1601 218.409 64.2119 202.038 75.1986C186.333 85.7384 172.451 103.607 168.856 122.543L168.303 125.86C153.705 128.332 140.083 134.167 131.207 146.527C112.357 172.774 115.283 212.381 120.384 242.487C122.796 256.724 126.226 270.875 130.802 284.576L137.22 301.619C133.376 303.295 129.536 304.794 126.25 307.456C116.054 315.715 111.354 327.252 109.692 340.047C107.586 356.247 111.731 374.851 122.026 387.737C127.881 395.064 135.925 401.197 145.5 402.193C152.624 402.935 159.64 400.806 165.439 396.66C165.94 406.833 167.358 417.213 169.248 427.216C171.972 441.628 175.85 457.243 187.232 467.43C191.977 471.678 197.624 475.111 202.93 478.614L236.021 498.552L261.283 511.506C256.762 512.198 251.022 512.795 248.082 516.75C246.197 519.287 245.481 523.028 244.815 526.065L241.449 541.854C241.198 542.918 240.6 546.081 239.968 546.854C239.629 547.27 235.432 548.372 234.652 548.687C232.014 549.752 229.287 551.148 226.924 552.74C224.183 554.588 221.651 557.196 219.65 559.822C218.468 561.374 216.734 565.263 215.162 566.137C209.809 569.112 202.99 570.806 197.318 573.346C180.261 580.983 162.748 590.37 148.193 602.128C142.855 606.44 137.658 610.962 133.466 616.428C128.951 622.316 127.286 628.966 125.227 635.968L118.414 662.052C99.2076 741.297 90.2985 821.859 84.0201 903.006L79.2279 978.519L77.3553 1024Z"/>
</svg>
